<svg width="45" height="46" viewBox="0 0 45 46" fill="none" xmlns="http://www.w3.org/2000/svg">
  <rect x="0.65" y="1.15" width="43.7" height="43.7" rx="21.85" stroke="#1476F2" stroke-width="1.3"/>
  <path d="M18.5194 21.1372C18.5194 20.4963 17.9999 19.9768 17.359 19.9768C16.7181 19.9768 16.1986 20.4963 16.1986 21.1372C16.1986 21.7781 16.7181 22.2976 17.359 22.2976C17.9999 22.2976 18.5194 21.7781 18.5194 21.1372ZM19.0085 21.1372C19.0085 22.0483 18.2701 22.7867 17.359 22.7867C16.4479 22.7867 15.7095 22.0483 15.7095 21.1372C15.7095 20.2261 16.4479 19.4877 17.359 19.4877C18.2701 19.4877 19.0085 20.2261 19.0085 21.1372Z" fill="#1476F2" stroke="#1476F2" stroke-width="0.3"/>
  <path d="M27.8856 22.0738C27.8856 21.4329 27.3661 20.9134 26.7252 20.9134C26.0843 20.9134 25.5648 21.4329 25.5648 22.0738C25.5648 22.7148 26.0843 23.2342 26.7252 23.2342C27.3661 23.2342 27.8856 22.7148 27.8856 22.0738ZM28.3747 22.0738C28.3747 22.9849 27.6363 23.7233 26.7252 23.7233C25.8141 23.7233 25.0757 22.9849 25.0757 22.0738C25.0757 21.1628 25.8141 20.4243 26.7252 20.4243C27.6363 20.4243 28.3747 21.1628 28.3747 22.0738Z" fill="#1476F2" stroke="#1476F2" stroke-width="0.3"/>
  <path d="M27.8856 26.7569C27.8856 26.116 27.3661 25.5966 26.7252 25.5966C26.0843 25.5966 25.5648 26.116 25.5648 26.7569C25.5648 27.3979 26.0843 27.9173 26.7252 27.9173C27.3661 27.9173 27.8856 27.3979 27.8856 26.7569ZM28.3747 26.7569C28.3747 27.668 27.6363 28.4065 26.7252 28.4065C25.8141 28.4065 25.0757 27.668 25.0757 26.7569C25.0757 25.8459 25.8141 25.1074 26.7252 25.1074C27.6363 25.1074 28.3747 25.8459 28.3747 26.7569Z" fill="#1476F2" stroke="#1476F2" stroke-width="0.3"/>
  <path d="M23.2025 19.2639C23.2025 18.623 22.683 18.1035 22.0421 18.1035C21.4012 18.1035 20.8817 18.623 20.8817 19.2639C20.8817 19.9048 21.4012 20.4243 22.0421 20.4243C22.683 20.4243 23.2025 19.9048 23.2025 19.2639ZM23.6916 19.2639C23.6916 20.175 22.9532 20.9134 22.0421 20.9134C21.131 20.9134 20.3926 20.175 20.3926 19.2639C20.3926 18.3528 21.131 17.6144 22.0421 17.6144C22.9532 17.6144 23.6916 18.3528 23.6916 19.2639Z" fill="#1476F2" stroke="#1476F2" stroke-width="0.3"/>
  <path d="M21.7976 20.6688H22.2867V34.25H21.7976V20.6688Z" fill="#1476F2" stroke="#1476F2" stroke-width="0.3"/>
  <path d="M24.16 27.6936H23.6709V24.7824L25.6158 22.8375L25.9617 23.1834L24.16 24.985V27.6936Z" fill="#1476F2" stroke="#1476F2" stroke-width="0.3"/>
  <path d="M18.1226 22.2467L18.4684 21.9009L20.4133 23.8458V26.757H19.9242V24.0484L18.1226 22.2467Z" fill="#1476F2" stroke="#1476F2" stroke-width="0.3"/>
  <path d="M24.16 31.4402H23.6709V29.9339L25.6158 27.989L25.9617 28.3349L24.16 30.1365V31.4402Z" fill="#1476F2" stroke="#1476F2" stroke-width="0.3"/>
  <path d="M30.0035 18.0826C31.9491 18.0826 33.5263 19.6598 33.5263 21.6054C33.5263 23.551 31.9491 25.1282 30.0035 25.1282H29.5352V24.639H30.0035C31.679 24.639 33.0372 23.2808 33.0372 21.6054C33.0372 19.93 31.679 18.5718 30.0035 18.5718C29.6872 18.5718 29.3773 18.6207 29.0805 18.7156L28.6881 18.8412L28.7658 18.4365C28.8032 18.2421 28.8223 18.05 28.8223 17.8584C28.8223 16.183 27.4641 14.8248 25.7887 14.8248C25.052 14.8248 24.3568 15.09 23.8074 15.5647L23.5353 15.7998L23.4167 15.4603C22.7989 13.6917 21.13 12.4836 19.2294 12.4836C16.7779 12.4836 14.7904 14.4713 14.7904 16.9232C14.7904 17.3831 14.861 17.8337 14.9981 18.2659L15.0915 18.5602L14.7836 18.5837C13.2088 18.704 11.9838 20.0182 11.9838 21.6054C11.9838 23.2805 13.3421 24.639 15.0174 24.639H18.7639V25.1282H15.0174C13.072 25.1282 11.4946 23.5507 11.4946 21.6054C11.4946 19.8622 12.7665 18.4029 14.4513 18.131C14.3521 17.7386 14.3012 17.3341 14.3012 16.9232C14.3012 14.2012 16.5078 11.9945 19.2294 11.9945C21.2249 11.9945 22.9902 13.1937 23.7562 14.984C24.3451 14.566 25.0492 14.3356 25.7887 14.3356C27.7343 14.3356 29.3115 15.9128 29.3115 17.8584C29.3115 17.9569 29.3071 18.0553 29.2986 18.1537C29.5291 18.1066 29.7648 18.0826 30.0035 18.0826Z" fill="#1476F2" stroke="#1476F2" stroke-width="0.3"/>
  <path d="M23.4246 15.4572L23.8864 15.2961C24.014 15.6619 24.0984 16.0415 24.1368 16.4288L23.65 16.477C23.6155 16.1285 23.5395 15.7867 23.4246 15.4572Z" fill="#1476F2" stroke="#1476F2" stroke-width="0.3"/>
  <path d="M28.7675 18.4366L29.2477 18.5294C29.1692 18.9356 29.0201 19.3223 28.8083 19.6745L28.3892 19.4224C28.5716 19.1191 28.6999 18.7863 28.7675 18.4366Z" fill="#1476F2" stroke="#1476F2" stroke-width="0.3"/>
  <path d="M14.7829 18.5807L14.7458 18.0929C15.1865 18.0594 15.6298 18.1077 16.0521 18.2369L15.9091 18.7046C15.5454 18.5934 15.1631 18.5518 14.7829 18.5807Z" fill="#1476F2" stroke="#1476F2" stroke-width="0.3"/>
  <path d="M19.9243 27.6936H20.4134V28.6302H19.9243V27.6936Z" fill="#1476F2" stroke="#1476F2" stroke-width="0.3"/>
  <path d="M19.9243 29.5669H20.4134V30.5035H19.9243V29.5669Z" fill="#1476F2" stroke="#1476F2" stroke-width="0.3"/>
  <path d="M23.6709 32.3767H24.16V33.3133H23.6709V32.3767Z" fill="#1476F2" stroke="#1476F2" stroke-width="0.3"/>
  <path d="M19.9243 31.4401H20.4134V32.3767H19.9243V31.4401Z" fill="#1476F2" stroke="#1476F2" stroke-width="0.3"/>
</svg>
