<svg width="45" height="46" viewBox="0 0 45 46" fill="none" xmlns="http://www.w3.org/2000/svg">
  <g clip-path="url(#clip0_16_4653)">
    <circle cx="22.5" cy="23" r="21.85" stroke="#1476F2" stroke-width="1.3"/>
    <path fill-rule="evenodd" clip-rule="evenodd" d="M25.4621 34.6989H19.478L20.226 30.3904H24.7141L25.4621 34.6989V34.6989Z" stroke="#1476F2" stroke-width="1.3" stroke-linecap="round" stroke-linejoin="round"/>
    <path d="M17.2341 34.6987H27.7062" stroke="#1476F2" stroke-width="1.3" stroke-linecap="round" stroke-linejoin="round"/>
    <path fill-rule="evenodd" clip-rule="evenodd" d="M11.25 14.1562C11.25 13.604 11.6977 13.1562 12.25 13.1562H32.6902C33.2424 13.1562 33.6902 13.604 33.6902 14.1563V29.3903C33.6902 29.9426 33.2424 30.3903 32.6902 30.3903H12.25C11.6977 30.3903 11.25 29.9426 11.25 29.3903V14.1562Z" stroke="#1476F2" stroke-width="1.3" stroke-linecap="round" stroke-linejoin="round"/>
    <path d="M11.25 24.4063L16.8328 19.7551C17.0306 19.5901 17.299 19.4975 17.5788 19.4975C17.8587 19.4975 18.127 19.5901 18.3248 19.7551L21.0516 22.0273C21.2494 22.1923 21.5177 22.285 21.7976 22.285C22.0774 22.285 22.3458 22.1923 22.5436 22.0273L28.125 17.375" stroke="#1476F2" stroke-width="1.3" stroke-linecap="round" stroke-linejoin="round"/>
    <path d="M11.25 27.5181H33.6902" stroke="#1476F2" stroke-width="1.3" stroke-linecap="round" stroke-linejoin="round"/>
  </g>
  <defs>
    <clipPath id="clip0_16_4653">
      <rect width="45" height="45" fill="white" transform="translate(0 0.5)"/>
    </clipPath>
  </defs>
</svg>
