<svg width="45" height="46" viewBox="0 0 45 46" fill="none" xmlns="http://www.w3.org/2000/svg">
  <rect x="0.65" y="1.15" width="43.7" height="43.7" rx="21.85" stroke="#1476F2" stroke-width="1.3"/>
  <g clip-path="url(#clip0_16_4690)">
    <path fill-rule="evenodd" clip-rule="evenodd" d="M21.9836 13.6381L26.8024 18.455L25.81 19.4478C25.585 19.6728 25.3727 19.9236 25.3492 20.2306C25.3216 20.5855 25.5583 20.8222 25.6717 20.9356C25.8386 21.1025 26.0481 21.1738 26.2511 21.2427C26.582 21.3552 26.7231 21.4231 26.7897 21.6509C26.8427 21.8319 26.702 22.2092 26.3636 22.5369C26.0327 22.8791 25.6502 23.0009 25.4884 22.9522C25.2606 22.8861 25.1927 22.7445 25.0797 22.4141C25.0108 22.2111 24.94 22.0016 24.7731 21.8347C24.6597 21.7212 24.4488 21.5103 24.1244 21.5103C23.793 21.5103 23.5249 21.733 23.2849 21.973L21.9747 23.2831L20.5961 21.9055C20.5272 21.8361 20.4817 21.785 20.4517 21.748C20.4864 21.7245 20.6003 21.6861 20.6758 21.6603C21.0222 21.5422 21.603 21.3448 21.813 20.6277C21.9752 20.0727 21.715 19.3611 21.1605 18.8263C20.6238 18.2712 19.9009 18.0022 19.3478 18.1634C18.6306 18.3739 18.4333 18.9542 18.3156 19.3006C18.2894 19.378 18.2495 19.4947 18.2336 19.5186C18.2317 19.5205 18.2294 19.5223 18.2275 19.5247C18.1909 19.4947 18.1399 19.4492 18.0705 19.3803L17.1559 18.4663L21.9836 13.6381ZM18.2477 20.5058C18.572 20.5058 18.783 20.2948 18.8969 20.1809C19.0633 20.015 19.1345 19.805 19.203 19.6025C19.3159 19.2716 19.3839 19.13 19.6108 19.0634C19.8109 19.0072 20.2052 19.1872 20.4981 19.4895C20.8253 19.8055 20.9659 20.1823 20.913 20.3642C20.8464 20.5916 20.7049 20.66 20.3734 20.773C20.1714 20.8419 19.9619 20.9131 19.795 21.0795C19.6816 21.193 19.4449 21.4297 19.4725 21.7845C19.4959 22.092 19.7083 22.3428 19.9333 22.5683L21.9747 24.6087L23.9477 22.6358C24.017 22.5669 24.0681 22.5214 24.1047 22.4919C24.1281 22.5266 24.1666 22.64 24.1924 22.7155C24.31 23.0619 24.5074 23.6422 25.225 23.8522C25.3342 23.8841 25.4505 23.9005 25.5705 23.9005C26.058 23.9005 26.6064 23.6342 27.0264 23.1997C27.5917 22.6536 27.8524 21.942 27.6897 21.387C27.4797 20.6698 26.8989 20.4725 26.5525 20.3548C26.4752 20.3286 26.3584 20.2888 26.3345 20.2728L26.3294 20.2677C26.3589 20.2302 26.4044 20.1795 26.4728 20.1106L28.128 18.455L21.9836 12.3125L15.8303 18.4663L17.4077 20.0431C17.6481 20.2836 17.9163 20.5058 18.2477 20.5058Z" fill="#1476F2" stroke="#1476F2" stroke-width="0.1"/>
    <path fill-rule="evenodd" clip-rule="evenodd" d="M31.7309 22.8795C31.6854 22.8341 31.6517 22.797 31.6259 22.768C31.6699 22.7492 31.7384 22.7258 31.7918 22.7075C32.1199 22.5964 32.6698 22.4094 32.8695 21.7264C33.0237 21.1991 32.7781 20.525 32.2549 20.0202C31.7398 19.4867 31.0671 19.242 30.5374 19.3948C29.8549 19.595 29.6684 20.1444 29.5563 20.472C29.5371 20.5287 29.5123 20.6023 29.4973 20.6398C29.4682 20.6141 29.4307 20.5798 29.3843 20.5334L28.7693 19.9184L28.1065 20.5812L28.7215 21.1962C28.9352 21.41 29.1738 21.6111 29.4706 21.6341C29.8071 21.6552 30.042 21.4334 30.1512 21.3247C30.3115 21.1644 30.3818 20.9567 30.4442 20.7744C30.5468 20.472 30.6045 20.3525 30.8009 20.2948C30.9588 20.2489 31.2996 20.3811 31.5926 20.6834C31.8842 20.9647 32.0149 21.3073 31.9695 21.4634C31.9118 21.6598 31.7923 21.7175 31.4899 21.8197C31.3076 21.882 31.0999 21.9523 30.9396 22.1127C30.3668 22.6855 30.6832 23.157 31.0681 23.5423L32.262 24.7358L31.0048 25.9925C30.9593 26.0375 30.9223 26.0722 30.8932 26.097C30.8745 26.0534 30.8506 25.9845 30.8323 25.9306C30.7207 25.6025 30.5337 25.0536 29.8507 24.8534C29.3215 24.6992 28.6498 24.9444 28.1445 25.467C27.6106 25.9831 27.3654 26.6572 27.5201 27.1841C27.7198 27.8666 28.2687 28.0531 28.5968 28.1647C28.6545 28.1839 28.7281 28.2092 28.7656 28.2237C28.7398 28.2537 28.7051 28.2912 28.6587 28.3377L27.8332 29.1627L23.4321 24.763L22.7693 25.4258L27.8332 30.4883L29.3215 29.0005C29.5352 28.7872 29.7368 28.5481 29.7593 28.2514C29.786 27.9069 29.5587 27.6795 29.4504 27.5712C29.2901 27.4105 29.0824 27.3402 28.8992 27.2773C28.5968 27.1747 28.4777 27.117 28.4201 26.9202C28.3741 26.7645 28.5049 26.4223 28.8073 26.1298C29.0885 25.8383 29.4321 25.7075 29.5873 25.7534C29.7846 25.8111 29.8423 25.9306 29.9445 26.2325C30.0073 26.4158 30.0781 26.6234 30.2374 26.7828C30.3387 26.8841 30.5492 27.0945 30.8637 27.095C31.1834 27.095 31.4393 26.8836 31.6676 26.6553L33.5876 24.7358L31.7309 22.8795ZM17.3946 32.3008L12.5759 27.4839L13.5682 26.4911C13.7932 26.2661 14.0056 26.0153 14.029 25.7078C14.0567 25.3525 13.8199 25.1163 13.7065 25.0033C13.5396 24.8364 13.3301 24.7652 13.1271 24.6963C12.7962 24.5838 12.6551 24.5158 12.5885 24.288C12.5356 24.107 12.6762 23.7297 13.0146 23.402C13.2954 23.1119 13.6985 22.9305 13.8898 22.9867C14.1176 23.0528 14.1856 23.1944 14.2985 23.5249C14.3674 23.7278 14.4387 23.9378 14.6051 24.1038C14.7185 24.2177 14.9295 24.4291 15.2543 24.4286C15.5852 24.4286 15.8534 24.2059 16.0938 23.9659L17.4035 22.6558L18.7821 24.0334C18.851 24.1028 18.8965 24.1539 18.9265 24.1905C18.8918 24.2144 18.7779 24.2528 18.7024 24.2786C18.3556 24.3967 17.7752 24.5941 17.5652 25.3113C17.4035 25.8658 17.6637 26.5774 18.2177 27.1127C18.7549 27.6677 19.4777 27.9367 20.0304 27.7755C20.7471 27.5645 20.9445 26.9852 21.0626 26.6388C21.0888 26.5614 21.1287 26.4447 21.1451 26.4203L21.1507 26.4147C21.1877 26.4447 21.2384 26.4902 21.3077 26.5586L22.2223 27.4727L17.3946 32.3008ZM21.131 25.4331C20.8067 25.4331 20.5957 25.6441 20.4827 25.757C20.3154 25.9239 20.2442 26.1339 20.1752 26.3364C20.0623 26.6674 19.9943 26.8089 19.767 26.8755C19.5715 26.9308 19.1735 26.7517 18.8806 26.4499C18.5529 26.133 18.4123 25.7556 18.4652 25.5742C18.5318 25.3474 18.6734 25.2789 19.0043 25.1659C19.2068 25.0975 19.4163 25.0258 19.5837 24.8589C20.1776 24.2636 19.8467 23.7728 19.4449 23.3706L17.4035 21.3302L15.431 23.3031C15.3617 23.372 15.3106 23.4175 15.274 23.4466C15.2506 23.4128 15.2117 23.2989 15.1859 23.223C15.0677 22.8766 14.8704 22.2967 14.1537 22.0867C13.6015 21.925 12.8759 22.1974 12.3518 22.7392C11.7865 23.2853 11.5259 23.9969 11.6885 24.5519C11.8985 25.2691 12.4793 25.4664 12.8257 25.5841C12.9031 25.6103 13.0198 25.6502 13.0442 25.6666C13.046 25.6684 13.0474 25.6699 13.0488 25.6713C13.0193 25.7088 12.9738 25.7594 12.9054 25.8283L11.2502 27.4839L17.3946 33.6264L23.5479 27.4727L21.9706 25.8958C21.7301 25.6553 21.462 25.4331 21.131 25.4331Z" fill="#1476F2" stroke="#1476F2" stroke-width="0.1"/>
  </g>
  <defs>
    <clipPath id="clip0_16_4690">
      <rect width="22.5" height="22.5" fill="white" transform="translate(11.25 11.75)"/>
    </clipPath>
  </defs>
</svg>
