<svg width="45" height="46" viewBox="0 0 45 46" fill="none" xmlns="http://www.w3.org/2000/svg">
  <rect x="0.65" y="1.15" width="43.7" height="43.7" rx="21.85" stroke="#1476F2" stroke-width="1.3"/>
  <g clip-path="url(#clip0_16_4675)">
    <path fill-rule="evenodd" clip-rule="evenodd" d="M13.3977 33.2273H31.8068V15.8409H13.3977V33.2273ZM13.3977 14.8182H31.8068V12.7727H13.3977V14.8182ZM32.3182 11.75C32.601 11.75 32.8295 11.9791 32.8295 12.2614V33.7386C32.8295 34.0209 32.601 34.25 32.3182 34.25H12.8864C12.6036 34.25 12.375 34.0209 12.375 33.7386V12.2614C12.375 11.9791 12.6036 11.75 12.8864 11.75H32.3182ZM14.4205 14.3068H15.4432V13.2841H14.4205V14.3068ZM16.4659 14.3068H17.4886V13.2841H16.4659V14.3068ZM23.1136 28.9177V23.3556L27.7159 21.6441V27.244L23.1136 28.9177ZM17.4886 21.6441L22.0909 23.3556V28.9177L17.4886 27.244V21.6441ZM22.6023 19.4534L26.6824 20.9369L22.6023 22.4541L18.5221 20.9369L22.6023 19.4534ZM28.4022 20.4741L22.7772 18.4286C22.6641 18.3877 22.5404 18.3877 22.4274 18.4286L16.8024 20.4741C16.6004 20.5477 16.4659 20.7395 16.4659 20.9548V27.6025C16.4659 27.8173 16.6004 28.0095 16.8024 28.0832L22.4274 30.1286C22.4841 30.1491 22.5435 30.1593 22.6023 30.1593C22.6611 30.1593 22.7204 30.1491 22.7772 30.1286L28.4022 28.0832C28.6041 28.0095 28.7386 27.8173 28.7386 27.6025V20.9548C28.7386 20.7395 28.6041 20.5477 28.4022 20.4741Z" fill="#1476F2"/>
  </g>
  <defs>
    <clipPath id="clip0_16_4675">
      <rect width="22.5" height="22.5" fill="white" transform="translate(11.25 11.75)"/>
    </clipPath>
  </defs>
</svg>
