<svg width="45" height="46" viewBox="0 0 45 46" fill="none" xmlns="http://www.w3.org/2000/svg">
  <rect x="0.65" y="1.15" width="43.7" height="43.7" rx="21.85" stroke="#1476F2" stroke-width="1.3"/>
  <path fill-rule="evenodd" clip-rule="evenodd" d="M31.875 33.3125C32.392 33.3125 32.8125 32.892 32.8125 32.375V30.5H20.1562V32.375C20.1562 32.892 20.5767 33.3125 21.0937 33.3125H31.875ZM20.1562 29.5625H32.8125V15.0312H20.1562V29.5625ZM21.0937 12.6875C20.5767 12.6875 20.1562 13.108 20.1562 13.625V14.0938H32.8125V13.625C32.8125 13.108 32.392 12.6875 31.875 12.6875H21.0937ZM31.875 11.75C32.9091 11.75 33.75 12.5909 33.75 13.625V32.375C33.75 33.4091 32.9091 34.25 31.875 34.25H21.0937C20.0597 34.25 19.2188 33.4091 19.2188 32.375V13.625C19.2188 12.5909 20.0597 11.75 21.0937 11.75H31.875Z" fill="#1476F2"/>
  <path fill-rule="evenodd" clip-rule="evenodd" d="M25.3125 32.3752H27.6564V31.4375H25.3125V32.3752Z" fill="#1476F2"/>
  <path fill-rule="evenodd" clip-rule="evenodd" d="M22.0386 18.3284L21.1808 19.1863C21.0931 19.2739 21.0435 19.393 21.0435 19.5177C21.0435 19.6419 21.0931 19.7609 21.1808 19.8491L22.8388 21.5061C23.0216 21.6894 23.3183 21.6894 23.5016 21.5061L24.3655 20.6422C24.5206 20.7163 24.6805 20.7819 24.8436 20.8395V22.0625C24.8436 22.3213 25.0536 22.5313 25.3124 22.5313H27.6561C27.9153 22.5313 28.1249 22.3213 28.1249 22.0625V20.8395C28.2885 20.7819 28.4483 20.7163 28.6035 20.6422L29.4678 21.5061C29.6506 21.6894 29.9474 21.6894 30.1306 21.5061L31.7877 19.8491C31.8758 19.7609 31.925 19.6419 31.925 19.5177C31.925 19.393 31.8758 19.2739 31.7877 19.1863L30.9303 18.3284C31.0063 18.1831 31.0756 18.0298 31.1366 17.8438H31.8749V16.9062H30.7766C30.5553 16.9062 30.3646 17.0609 30.3181 17.277C30.2356 17.6642 30.1236 17.8606 29.9417 18.1775C29.8372 18.3608 29.8681 18.5919 30.0172 18.7414L30.7935 19.5177L29.7992 20.5119L29.023 19.7361C28.8735 19.5866 28.6419 19.5556 28.4586 19.6606C28.1713 19.8252 27.8595 19.9536 27.5328 20.0427C27.3289 20.0984 27.1874 20.2836 27.1874 20.495V21.5938H25.7811V20.495C25.7811 20.2836 25.64 20.0984 25.4361 20.0427C25.1089 19.9536 24.7977 19.8252 24.5099 19.6606C24.3261 19.5556 24.095 19.5866 23.946 19.7361L23.1702 20.5119L22.1755 19.5177L22.9513 18.7414C23.1013 18.5919 23.1205 18.3406 23.015 18.1573C22.8453 17.8606 22.7333 17.6642 22.6508 17.277C22.6044 17.0609 22.4131 16.9062 22.1924 16.9062H21.0936V17.8438H21.8328C21.8924 18.0275 21.9617 18.1808 22.0386 18.3284Z" fill="#1476F2"/>
  <path fill-rule="evenodd" clip-rule="evenodd" d="M26.5105 18.0781C27.6735 18.0781 28.6199 17.1317 28.6199 15.9688H27.6824C27.6824 16.6147 27.1564 17.1406 26.5105 17.1406C25.8645 17.1406 25.3386 16.6147 25.3386 15.9688H24.4011C24.4011 17.1317 25.3475 18.0781 26.5105 18.0781ZM16.875 15.9688V17.2077C16.5666 17.307 16.2675 17.4308 15.9797 17.578L15.1041 16.7023C14.9208 16.5191 14.6241 16.5191 14.4412 16.7023L12.4523 18.6912C12.2691 18.8741 12.2691 19.1708 12.4523 19.3541L13.328 20.2297C13.1808 20.5175 13.057 20.8166 12.9577 21.125H11.7188C11.46 21.125 11.25 21.335 11.25 21.5937V24.4062C11.25 24.665 11.46 24.875 11.7188 24.875H12.9577C13.057 25.1834 13.1808 25.4825 13.328 25.7703L12.4523 26.6459C12.2691 26.8292 12.2691 27.1259 12.4523 27.3087L14.4412 29.2977C14.6241 29.4809 14.9208 29.4809 15.1041 29.2977L15.9797 28.422C16.2675 28.5692 16.5666 28.693 16.875 28.7923V30.0312C16.875 30.29 17.085 30.5 17.3438 30.5H18.75V29.5625H17.8125V28.4408C17.8125 28.227 17.6677 28.04 17.4609 27.987C16.9941 27.8666 16.5483 27.6819 16.1353 27.4381C15.9506 27.3289 15.7162 27.3589 15.5658 27.5103L14.7727 28.3034L13.4466 26.9773L14.2397 26.1842C14.3911 26.0333 14.4206 25.7989 14.3119 25.6147C14.0681 25.2017 13.8834 24.7559 13.763 24.2891C13.71 24.0823 13.523 23.9375 13.3092 23.9375H12.1875V22.0625H13.3092C13.523 22.0625 13.71 21.9177 13.763 21.7109C13.8834 21.2441 14.0681 20.7983 14.3119 20.3853C14.4206 20.2011 14.3911 19.9667 14.2397 19.8158L13.4466 19.0227L14.7727 17.6966L15.5658 18.4897C15.7167 18.6416 15.9516 18.6711 16.1353 18.5619C16.5483 18.3181 16.9941 18.1334 17.4609 18.013C17.6677 17.96 17.8125 17.773 17.8125 17.5592V16.4375H18.75V15.5H17.3438C17.085 15.5 16.875 15.71 16.875 15.9688Z" fill="#1476F2"/>
  <path fill-rule="evenodd" clip-rule="evenodd" d="M15.4688 23C15.4688 24.8094 16.9406 26.2812 18.75 26.2812V25.3437C17.4577 25.3437 16.4063 24.2923 16.4063 23C16.4063 21.7077 17.4577 20.6562 18.75 20.6562V19.7188C16.9406 19.7188 15.4688 21.1906 15.4688 23Z" fill="#1476F2"/>
</svg>
