<?xml version="1.0" encoding="utf-8"?>
<!-- Generator: Adobe Illustrator 27.5.0, SVG Export Plug-In . SVG Version: 6.00 Build 0)  -->
<svg version="1.1" xmlns="http://www.w3.org/2000/svg" xmlns:xlink="http://www.w3.org/1999/xlink" x="0px" y="0px"
	 viewBox="0 0 1122 800" style="enable-background:new 0 0 1122 800;" xml:space="preserve">
<g id="Background">
	<rect y="0" style="fill:#FFFFFF;" width="1122" height="800"/>
</g>
<g id="Shadow">
	<g>
		<path style="fill:#F7F7F7;" d="M518.926,714.845c-29.285,0.053-58.57,0.484-87.803,2.472c-11.022,0.75-21.814,2.398-32.861,3.063
			c-22.067,1.328-43.738,3.807-65.884,4.95c-17.833,0.921-35.741,1.464-53.522,2.632c-16.671,1.095-35.127,0.842-51.669-0.967
			c-12.247-1.339-24.549-2.093-36.59-4.244c-13.47-2.406-28.103-4.127-42.137-4.065c-20.012,0.088-39.502,0.099-58.653,4.347
			c-6.723,1.491-14.953,3.943-20.058,7.073c-11.687,7.165-13.269,25.044-1.6,32.476c19.654,12.508,61.603,17.415,89.152,17.647
			c30.189,0.254,59.516-1.116,89.749-1.922c28.093-0.749,56.116-1.814,84.255-1.776c57.472,0.077,114.951,0,172.32-2.347
			c53.899-2.205,107.933-1.448,161.95-1.448c55.392,0,110.41,0.266,165.402,4.767c23.961,1.961,48.372,2.648,72.453,4.022
			c21.567,1.231,42.292-0.024,63.773-1.161c18.037-0.955,35.957-3.788,52.343-8.576c12.971-3.79,36.096-15.565,40.073-24.612
			c11.152-25.363-157.162-24.754-183.005-24.696c-28.91,0.064-58.049,0.645-86.936-0.029c-12.151-0.284-24.124-1.736-35.983-3.327
			c-11.813-1.585-23.714-1.182-35.694-1.848c-49.955-2.778-100.021-2.372-150.136-2.372
			C551.559,714.903,535.242,714.815,518.926,714.845z"/>
	</g>
</g>
<g id="Object">
	<g>
		<g>
			<path style="fill:#305399;" d="M189.825,424.703l26.893-27.704l10.602-45.229l5.924-1.56l-32.782,4.62l-7.53,17.368
				l-43.566,53.068l0.087,0.317C162.909,426.665,176.367,422.738,189.825,424.703z"/>
		</g>
	</g>
	<g>
		<polygon style="fill:#D7E8F4;" points="677.496,360.784 738.692,403.829 778.938,439.45 761.767,442.066 682.452,388.934 		"/>
	</g>
	<g>
		<g>
			<g>
				<g>
					<path style="fill:#3B455A;" d="M577.998,236.692c-0.003-0.846-0.132-1.713-0.407-2.598c-0.438-1.409-1.291-2.679-2.269-3.771
						c-2.538-2.835-6.367-4.073-9.977-5.305c-3.858-1.316-7.761-2.807-10.854-5.452c-5.888-5.035-3.887-12.733-7.977-18.637
						c-2.925-4.222-6.09-4.806-9.913-4.43l-20.74-57.249l3.819-0.927c1.792-0.435,8.864-4.217,8.359-6.298l-0.018-0.076
						c-0.505-2.081-2.368-3.416-4.16-2.981l-1.499,0.364c0.08-0.391,0.08-0.804-0.02-1.217l-0.013-0.055
						c-0.366-1.507-1.89-2.431-3.405-2.063l-7.227,1.755l-3.27-9.027l7.792-1.892c1.514-0.368,2.446-1.887,2.08-3.395l-0.013-0.055
						c-0.366-1.507-1.89-2.431-3.405-2.063l-2.517,0.611l11.385-36.331c0.591-3.114-1.837-5.978-5.018-5.919l-13.885,0.258
						c-2.156,0.04-4.306,0.165-6.447,0.356l-0.118-0.487c-0.697-2.87-3.599-4.629-6.483-3.928l-0.265,0.064l-3.076-6.002
						l12.156-2.951c1.631-0.396,2.634-2.033,2.24-3.656L499.6,39.95c-0.394-1.623-2.036-2.618-3.667-2.222l-10.442,2.535
						l-1.235-13.446c-0.055-0.596-0.397-1.127-0.918-1.425l-9.617-5.499c-0.853-0.488-1.942-0.223-2.476,0.601l-6.025,9.296
						c-0.326,0.503-0.387,1.133-0.162,1.687l5.068,12.516l-10.442,2.535c-1.631,0.396-2.634,2.033-2.24,3.656l3.25,13.386
						c0.394,1.623,2.036,2.618,3.667,2.222l12.156-2.951l0.019,6.744l-0.192,0.047c-2.884,0.7-4.656,3.594-3.96,6.464l0.096,0.396
						c-2.347,0.94-4.66,1.977-6.93,3.112l-11.507,5.755c-2.835,1.418-3.664,5.06-1.719,7.547l26.057,27.276l-2.603,0.632
						c-1.514,0.368-2.446,1.887-2.08,3.395l0.013,0.055c0.366,1.507,1.89,2.431,3.405,2.063l7.404-1.797l1.366,9.489l-6.064,1.472
						c-1.514,0.368-2.446,1.887-2.08,3.395l0.013,0.055c0.1,0.413,0.29,0.78,0.54,1.091l-0.708,0.172
						c-1.792,0.435-2.836,2.475-2.33,4.556l0.018,0.076c0.505,2.081,8.315,2.25,10.108,1.815l2.242-0.544l8.547,59.38
						c-3.448,1.513-6.061,3.943-6.649,8.446c-0.928,7.122,4.38,13.045,1.457,20.22c-1.535,3.769-4.32,6.883-7.146,9.821
						c-2.643,2.75-5.479,5.606-6.434,9.29c-0.809,3.122-0.484,5.641,0.677,7.663c-3.896,1.937-6.087,6.349-5.022,10.737l0.045,0.187
						c1.237,5.095,6.391,8.219,11.512,6.975l95.684-23.23c5.121-1.243,8.268-6.382,7.031-11.477l-0.045-0.187
						C586.227,239.576,582.31,236.673,577.998,236.692z"/>
				</g>
			</g>
		</g>
	</g>
	<g>
		<polygon style="fill:#EAC5B0;" points="524.116,286.71 531.726,273.281 524.643,259.216 516.988,263.128 517.736,274.614 
			513.673,278.461 515.082,288.323 		"/>
	</g>
	<g>
		<polygon style="fill:#305399;" points="474.205,360.075 519.861,357.505 512.537,287.715 528.538,284.857 545.413,374.575 
			528.105,390.362 481.567,396.122 		"/>
	</g>
	<g>
		<g>
			<path style="fill:#587BC9;" d="M437.97,163.938l-122.18,11.494l22.901,33.563c-36.945,25.994-83.172,58.661-84.554,60.352
				c-2.311,2.826-21.259-64.509-21.259-64.509l-98.109,75.297l-22.604-44.87l-78.471,60.924l68.413-30.336l25.046,48.875
				l86.994-61.141l19.61,69.661l127.541-81.12l24.614,36.074L437.97,163.938z"/>
		</g>
		<g>
			<polygon style="fill:#3B629B;" points="233.621,323.402 362.861,244.142 357.964,235.658 			"/>
		</g>
		<g>
			<polygon style="fill:#3B629B;" points="127.225,314.289 216.482,261.436 213.869,252.298 			"/>
		</g>
		<g>
			<polygon style="fill:#3B629B;" points="102.352,265.437 34.226,296.112 104.949,271.397 			"/>
		</g>
	</g>
	<g>
		<polygon style="fill:#EAC5B0;" points="336.561,292.389 334.485,272.016 320.876,262.822 316.946,273.795 323.445,286.282 
			323.445,296.508 		"/>
	</g>
	<g>
		<g>
			<path style="fill:#1E1E1E;" d="M291.485,740.319l-14.259-13.171c-4.137-2.093-8.514-3.556-12.06-3.511
				c-2.575,0.033-4.712,0.859-6.001,2.813c-1.238,1.877-1.489,4.348-0.646,6.351c0.308,0.732,0.746,1.388,1.239,2.005l-0.001,0
				l0.007,0.008c0.425,0.532,0.889,1.036,1.352,1.533c0.295,0.317,0.619,0.656,0.965,1.01c2.951,3.198,7.895,8.407,9.858,9.585
				c2.879,1.727,9.213,6.334,16.698,1.152c-0.028-0.025-0.059-0.048-0.087-0.073C291.271,746.178,292.072,743.15,291.485,740.319z"
				/>
		</g>
		<g>
			<path style="fill:#EAC5B0;" d="M280.293,625.617l-1.152,16.528l-5.649,80.466l5.649,9.361c0,0,1.152,7.486-7.486,6.91
				c-2.569-0.171-11.669-11.741-11.669-11.741l1.315-5.302l-6.404-60.417l0.059-17.548l-3.063-19.484L280.293,625.617z"/>
		</g>
	</g>
	<g>
		<g>
			<path style="fill:#1E1E1E;" d="M189.902,719.886c-2.654-0.835-5.127-0.707-7.109,0.865c-1.904,1.51-2.995,3.962-2.804,6.302
				c0.13,1.595,0.805,3.073,1.47,4.515c3.443,7.463,13.101,24.338,24.182,21.245c4.656-1.301,6.419-6.054,5.474-10.253
				C209.691,736.232,198.778,722.678,189.902,719.886z"/>
		</g>
	</g>
	<g>
		<path style="fill:#EAC5B0;" d="M245.753,615.965l-1.93,23.799l-46.717,84.115c0,0,6.715,11.732,2.456,12.751
			c-4.259,1.019-16.749-2.534-16.775-15.782c4.912-16.043,24.219-70.521,24.219-70.521l9.04-14.057l-0.133-26.418L245.753,615.965z"
			/>
	</g>
	<g>
		<path style="fill:#3B455A;" d="M192.971,536.3c-0.369-7.016,1.875-25.32,4.18-31.88c8.404-23.917,10.025-35.704,10.025-55.171
			c0-19.467-1.637-81.189-1.637-81.189l16.006-18.011l42.969,1.009l19.973,6.587c0,0,4.229,77.655,5.429,102.684
			c0.857,17.861,2.097,33.33,3.73,54.026c0,0,4.578,47.204-2.495,97.806c0,0-1.579,16.803-2.287,18.275
			c-0.094,0.5-0.146,0.768-0.146,0.768s-0.285,0-0.288,0.001l-79.985-0.001l0-28.837c-2.662-9.256-5.192-18.553-7.615-27.874
			C197.751,562.647,193.655,549.32,192.971,536.3z"/>
	</g>
	<g>
		<path style="fill:#305399;" d="M200.461,354.83l-2.833,12.67c0,0,8.994,69.344,9.548,81.749
			c0.554,12.405-15.432,61.977-15.432,61.977l66.218,8.637c0,0,9.739-52.941,12.542-79.24c2.803-26.3-37.261-90.413-37.261-90.413
			L200.461,354.83z"/>
	</g>
	<g>
		<path style="fill:#305399;" d="M276.273,354.241l13.514,6.413c0,0-1.901,79.025,1.564,99.096
			c2.112,12.235,10.336,51.855,10.336,51.855l-21.384,7.318c0,0-13.165-49.559-15.781-75.858c-2.616-26.3,0.234-91.702,0.234-91.702
			L276.273,354.241z"/>
	</g>
	<g>
		<g>
			<g>
				<path style="fill:#3B455A;" d="M273.651,325.292c1.754,6.79-2.273,13.497-5.798,19.224c-1.44,2.34-3.672,5.595-1.814,8.265
					c2.08,2.99,7.246,2.391,9.519,0.155c1.605-1.578,2.394-3.719,3.078-5.805c3.068-9.351,7.352-22.449,6.514-32.28
					c-0.672-7.882-10.338-21.879-20.295-16.871c-1.808,0.909-2.966,2.617-3.958,4.296c-0.592,1.003-1.164,2.053-1.282,3.198
					c-0.47,4.564,3.931,5.738,6.823,8.191C270.005,316.69,272.531,320.956,273.651,325.292z"/>
			</g>
			<g>
				<path style="fill:#EAC5B0;" d="M257.036,349.682c6.65-0.845,12.209-5.493,15.184-11.09c2.975-5.596,3.685-12.036,3.568-18.315
					c-0.388-20.896-28.096-22.056-38.87-7.04C227.529,326.325,237.7,352.138,257.036,349.682z"/>
			</g>
			<g>
				<path style="fill:#3B455A;" d="M238.121,323.102c-0.228,2.53-1.516,5.214-1.871,7.813c-0.654,4.785,0.418,10.995-1.333,15.367
					c-4.859-0.665-10.768-3.705-14.368-7.039c-3.677-3.405-3.015-8.469-3.837-13.485c-0.76-4.64-1.729-9.302-1.464-13.997
					c1.451-25.699,27.096-39.753,49.691-28.16c8.548,4.386,12.286,15.533,5.999,22.857c-6.763,7.877-20.503,4.462-28.603,10.307
					C240.538,318.063,239.157,320.392,238.121,323.102z"/>
			</g>
		</g>
		<g>
			<path style="fill:#EAC5B0;" d="M257.593,347.526c-0.337,1.556-0.675,3.111-1.012,4.667c-0.154,0.713-0.097,2.755-0.711,3.243
				c-0.32,0.255-0.795,0.217-1.215,0.166c-1.201-0.147-11.955-1.517-11.838-2.2c0.314-1.834,0.665-3.629,1.238-5.381
				c0.462-1.415,0.639-4.077,1.492-5.15c1.826,1.249,3.714,2.022,5.866,2.631c2.076,0.589,4.163,1.143,6.258,1.662
				C257.645,347.285,257.619,347.406,257.593,347.526z"/>
		</g>
	</g>
	<g>
		<polygon style="fill:#305399;" points="284.536,358.902 329.592,362.735 319.5,285.804 335.946,285.908 360.077,366.554 
			351.697,391.96 288.183,397.644 		"/>
	</g>
	<g>
		<polygon style="fill:#D2C3A8;" points="402.127,463.312 394.404,461.195 399.985,449.981 409.644,448.866 414.659,455.447 		"/>
	</g>
	<g id="XMLID_148_">
		<g id="XMLID_154_">
			<g>
				<path style="fill:none;" d="M938.729,345.022c0.162-5.143,1.709-10.298,4.322-14.79c-1.917,4.408-3.253,9.036-3.463,13.819
					c-0.32,7.331,2.363,15.087,8.235,19.54c0.034,0.026,0.068,0.048,0.101,0.073c-0.442,1.118-0.885,2.237-1.327,3.356l-6.557-0.266
					c-0.935,0.203-2.325,0.499-4.065,0.905c1.097-1.444,2.055-3.002,2.832-4.647C942.307,355.61,938.498,352.37,938.729,345.022z"/>
			</g>
		</g>
		<g id="XMLID_153_">
			<g>
				<path style="fill:none;" d="M984.269,351.263c0.221,1.558,0.069,3.202-0.497,4.712c-0.281,0.751-0.672,1.488-1.27,1.999
					c-0.74,0.631-1.706,0.842-2.508,1.376c-3.29,2.193-2.028,6.93-2.54,10.167c-0.145,0.919-0.386,1.807-0.664,2.682l-2.908-4.072
					l-12.444-0.504c0.008-0.034,0.016-0.067,0.023-0.101C970.643,366.678,979.567,359.806,984.269,351.263z"/>
			</g>
		</g>
		<g id="XMLID_152_">
			<g>
				<path style="fill:#EAC5B0;" d="M806.153,328.184l-5.374-4.547l-6.961,2.221l-3.994,5.814l1.823,4.963l5.653,3.277l-2.146,0.573
					l0.393,1.75l8.878,4.044c2.135-2.224,9.331-3.933,10.475-5.124l-5.938-5.102L806.153,328.184z"/>
			</g>
		</g>
		<g id="XMLID_151_">
			<g>
				<polygon style="fill:#4B505B;" points="976.617,733.175 976.814,735.093 977.467,741.458 964.785,749.195 957.465,743.516 
					963.479,736.464 964.039,736.123 964.335,736.855 				"/>
			</g>
		</g>
		<g>
			<path style="fill:#3B455A;" d="M923.817,596.057c14.371,0.945,27.707,1.335,38.186,1.474l-0.373,49.139l15.671,86.301
				l-0.684,0.205l-12.282,3.681l-0.296-0.732l-41.183-101.746l-1.438-20.745L923.817,596.057z"/>
		</g>
		<g id="XMLID_150_">
			<g>
				<path style="fill:#3B455A;" d="M920.68,602.988l0.738,10.645l-3.681,26.974l-4.195,97.352l-0.071,0.002l-0.053-1.408
					l-12.532,0.382l-19.776-103.356l-1.066-42.227c13.587,2.168,27.834,3.599,41.284,4.537L920.68,602.988z"/>
			</g>
		</g>
		<g id="XMLID_149_">
			<g>
				<path style="fill:#3B455A;" d="M921.326,595.888c0.833,0.058,1.663,0.114,2.491,0.169l-2.399,17.576l-0.738-10.645
					L921.326,595.888z"/>
			</g>
		</g>
		<g>
			<polygon style="fill:#4B505B;" points="900.02,736.961 900.885,736.935 913.417,736.553 913.469,737.961 913.656,742.948 
				900.498,749.752 893.561,743.56 			"/>
		</g>
		<g>
			<g>
				<path style="fill:#EAC5B0;" d="M946.598,367.022c0.442-1.118,0.885-2.237,1.327-3.356c-0.033-0.025-0.068-0.048-0.101-0.073
					c-5.873-4.453-8.556-12.209-8.235-19.54c0.209-4.783,1.545-9.411,3.462-13.819c1.467-2.521,3.266-4.835,5.355-6.815
					c3.78-3.582,8.897-6.429,13.895-6.255c2.032,0.071,1.186,1.655,3.643,0.403c0.332-0.169,0.722-0.516,1.114-0.948
					c0.359,0.394,0.609,0.673,0.677,0.744c2.359,2.454,4.966,3.626,7.796,5.406c4.296,2.701,6.607,8.441,5.577,13.853
					c-0.426,2.239-1.368,4.544-0.828,6.691c0.472,1.874,1.971,3.166,2.924,4.792c0.556,0.949,0.906,2.032,1.065,3.158
					c-4.702,8.543-13.626,15.415-22.807,16.259c-0.007,0.034-0.016,0.067-0.023,0.101c-0.123,0.544-0.249,1.086-0.4,1.615
					c-0.672,2.353-2.274,4.84-4.727,5.016c-1.12,0.08-2.209-0.349-3.251-0.77c-2.103-0.85-4.205-1.7-6.308-2.55
					c-0.431-0.174-0.906-0.392-1.068-0.826c-0.142-0.381,0.008-0.801,0.158-1.178C946.095,368.294,946.347,367.658,946.598,367.022z
					"/>
			</g>
		</g>
		<g>
			<g>
				<path style="fill:#3B455A;" d="M901.328,307.49c4.972-0.299,9.367,2.612,13.409,5.418c0.72-4.891,5.424-8.261,9.938-9.581
					c4.514-1.32,9.266-1.312,13.68-3.039c5.306-2.076,10.546-6.663,15.815-5.169c4.742,1.345,7.703,7.112,10.651,12.231
					c0.078-0.082,0.155-0.165,0.233-0.246c2.27-2.359,4.744-4.623,7.67-5.832c9.459-3.91,8.374,7.898,15.644,7.272
					c1.754-0.151,3.238-1.54,4.893-2.268c3.126-1.377,6.607-0.286,9.404,1.415c2.797,1.701,5.264,4.002,8.274,5.273
					c2.672,1.128,5.695,1.407,8.187,2.903c3.743,2.246,2.976,6.309,3.641,10.012c0.736,4.1,1.863,9.622,4.079,13.025
					c1.597,2.452,4.069,4.053,6.142,6.055c2.073,2.001,3.856,4.79,3.413,7.854c-0.42,2.903-2.721,5.259-3.383,8.126
					c-0.907,4.286-0.439,6.601-2.35,10.853c-0.986,2.194-2.072,4.512-3.995,5.846c-2.535,1.757-5.763,1.297-8.543,0.454
					c-2.779-0.842-5.614-2.008-8.535-1.435c-6.335,1.242-5.987,7.502-8.263,12.415c-1.516,3.273-4.222,5.758-7.339,7.21
					c-4.002,1.864-8.68,2.023-12.387-0.044c-5.591-3.118-8.126-10.37-6.996-17.056c0.411-2.431,1.443-4.659,2.182-6.981
					c0.279-0.876,0.519-1.764,0.665-2.682c0.512-3.236-0.75-7.974,2.54-10.167c0.802-0.534,1.768-0.745,2.507-1.376
					c0.598-0.51,0.989-1.248,1.27-1.999c0.566-1.511,0.718-3.154,0.497-4.712c-0.16-1.126-0.509-2.209-1.065-3.158
					c-0.953-1.626-2.452-2.918-2.924-4.792c-0.54-2.146,0.402-4.452,0.828-6.691c1.03-5.412-1.281-11.152-5.577-13.853
					c-2.831-1.78-5.437-2.952-7.796-5.406c-0.068-0.071-0.318-0.349-0.677-0.744c-0.392,0.432-0.782,0.779-1.114,0.948
					c-2.457,1.251-1.611-0.332-3.643-0.403c-4.998-0.174-10.115,2.673-13.895,6.255c-2.089,1.979-3.888,4.293-5.355,6.815
					c-2.613,4.491-4.16,9.646-4.322,14.789c-0.232,7.347,3.578,10.587,0.079,17.991c-0.777,1.644-1.735,3.203-2.832,4.647
					c-3.002,3.95-7.079,7.018-11.594,8.449c-0.514,0.002-1.024-0.022-1.532-0.063c-2.548-0.203-5.01-0.927-7.274-2.073
					c-2.258-1.143-4.318-2.704-6.062-4.591c-2.617-2.831-4.527-6.39-5.339-10.347c-0.442-2.155-0.654-4.541-2.07-6.099
					c-1.14-1.254-2.879-1.74-4.045-2.966c-4.852-5.099,4.409-14.355,2.324-21.363c-1.318-4.43-6.767-6.158-7.951-10.638
					C891.11,312.967,896.356,307.789,901.328,307.49z"/>
			</g>
		</g>
		<g>
			<g>
				<g>
					<path style="fill:#587BC9;" d="M796.496,343.608c0.369-0.067,17.169,26.904,28.878,40.081
						c10.689,12.029,43.414,30.141,55.627,40.619c-3.865,13.595,1.919,80.954-0.959,94.614
						c-18.32,86.941-15.336,69.581-15.336,69.581c4.957,1.069,10.098,2.013,15.336,2.848c13.587,2.168,27.834,3.6,41.284,4.537
						c0.833,0.058,1.664,0.114,2.49,0.169c14.371,0.945,27.708,1.335,38.187,1.474c13.579,0.18,22.361-0.061,22.361-0.061
						l30.419-172.081l-20.792-29.109c-4.002,1.864-8.68,2.023-12.387-0.044c-5.591-3.118-8.126-10.37-6.996-17.056
						c0.411-2.431,1.443-4.659,2.182-6.981l-2.908-4.072l-12.444-0.504c-0.123,0.544-0.249,1.086-0.4,1.615
						c-0.672,2.353-2.274,4.84-4.727,5.016c-1.12,0.08-2.209-0.349-3.251-0.77c-2.103-0.85-4.205-1.7-6.308-2.55
						c-0.431-0.174-0.906-0.392-1.068-0.826c-0.142-0.381,0.008-0.801,0.158-1.178c0.252-0.636,0.504-1.273,0.755-1.909
						l-6.557-0.266c-0.935,0.203-2.325,0.499-4.065,0.905c-3.002,3.95-7.079,7.018-11.594,8.449
						c-0.514,0.002-1.024-0.022-1.532-0.063c-2.548-0.203-5.01-0.927-7.274-2.073c-2.258-1.143-4.318-2.704-6.062-4.591
						c-14.247,0.611-37.195,9.544-49.327,2.225c-3.952-2.384-45.681-33.017-44.691-33.173c-0.003,0.001-16.898,4.792-18.523,5.087
						C796.674,343.576,796.498,343.608,796.496,343.608z"/>
				</g>
			</g>
		</g>
	</g>
	<g>
		<g>
			<g id="XMLID_147_">
				<g>
					
						<ellipse transform="matrix(0.7163 -0.6978 0.6978 0.7163 80.7793 614.7383)" style="fill:#305399;" cx="796.363" cy="208.031" rx="131.763" ry="131.777"/>
				</g>
			</g>
			<g id="XMLID_146_">
				<g>
					<path style="fill:#FFFFFF;" d="M698.638,207.733c-0.159,53.972,43.466,97.857,97.437,98.022
						c53.972,0.164,97.853-43.455,98.012-97.427c0.159-53.972-43.465-97.858-97.437-98.022
						C742.678,110.143,698.797,153.762,698.638,207.733z"/>
				</g>
			</g>
			<g id="XMLID_145_">
				<g>
					
						<ellipse transform="matrix(0.7109 -0.7033 0.7033 0.7109 83.9339 620.2393)" style="fill:#305399;" cx="796.363" cy="208.031" rx="63.068" ry="63.075"/>
				</g>
			</g>
			<g id="XMLID_144_">
				<g>
					<path style="fill:#D7E8F4;" d="M769.868,207.95c-0.043,14.633,11.784,26.531,26.417,26.575
						c14.633,0.045,26.53-11.781,26.573-26.414c0.043-14.633-11.784-26.531-26.417-26.575
						C781.808,181.492,769.911,193.318,769.868,207.95z"/>
				</g>
			</g>
		</g>
	</g>
	<g>
		<g id="XMLID_143_">
			<g>
				<polygon style="fill:#3B455A;" points="989.468,471.853 994.563,460.553 1036.784,479.254 1008.461,488.236 1020.796,514.722 
					978.574,496.021 983.69,484.674 854.257,428.863 849.137,440.208 822.979,407.72 865.164,404.7 860.043,416.045 				"/>
			</g>
		</g>
		<g>
			<path style="fill:#587BC9;" d="M1034.382,484.571l0.053-0.109l0.001,0L1034.382,484.571z M1036.758,479.309l0.053-0.109l0.001,0
				L1036.758,479.309z"/>
		</g>
	</g>
	<g>
		<g>
			<g>
				<polygon style="fill:#D7E8F4;" points="620.454,380.598 601.774,452.49 554.79,474.001 558.186,492.115 610.265,480.794 
					652.532,414.006 				"/>
			</g>
		</g>
		<g>
			<g>
				<polygon style="fill:#D7E8F4;" points="609.699,542.496 609.699,617.218 630.078,737.792 649.89,737.792 645.362,631.37 
					658.381,544.194 				"/>
			</g>
		</g>
		<g>
			<g>
				<path style="fill:#D7E8F4;" d="M620.079,380.599l38.441-22.507c0,0,20.082,33.9,45.485,89.241
					c25.403,55.341,12.478,132.722,12.478,132.722s-97.18-7.917-116.466-8.723l7.276-109.388L620.079,380.599z"/>
			</g>
		</g>
		<g>
			<g>
				<polygon style="fill:#D7E8F4;" points="639.849,546.692 667.815,738.037 688.95,738.037 688.555,633.667 705.95,529.297 				"/>
			</g>
		</g>
		<g>
			<g>
				<g>
					<path style="fill:#E2AC91;" d="M604.595,327.056c11.982-0.944,21.571-12.372,33.603-11.743
						c7.823,0.409,14.84,6.217,18.315,13.442c1.62,3.368,2.592,7.16,2.075,10.835c-0.336,2.385-1.284,4.634-2.492,6.687
						c-1.615,2.746-3.736,5.146-6.197,7.118c1.849,2.163,3.894,4.159,6.103,5.953c-5.144,2.93-10.288,5.86-15.432,8.79
						c-1.689-2.955-3.377-5.91-5.066-8.865c-1.657,0.161-3.331,0.178-4.999,0.007c-10.088-1.031-19.433-8.296-23.132-17.982
						C605.641,336.76,605.092,331.876,604.595,327.056z"/>
				</g>
			</g>
			<g>
				<g>
					<polygon style="fill:#3B455A;" points="608.135,330.172 644.106,320.205 655.505,347.102 664.593,337.305 652.245,292.329 
						600.368,299.138 579.992,315.702 582.956,328.719 605.04,339.127 					"/>
				</g>
			</g>
		</g>
		<g>
			<g>
				<path style="fill:#FFFFFF;" d="M633.397,368.437l43.291-7.096c0,0,15.231,18.489,40.635,73.83
					c25.403,55.341,12.478,132.722,12.478,132.722s-90.226-28.593-109.513-29.398l0.323-88.712L633.397,368.437z"/>
			</g>
		</g>
		<g>
			<g>
				<path style="fill:#305399;" d="M627.721,451.868c-0.657,8.077-1.294,17.161,1.449,24.495c0,0,6.74,9.885,7.111,9.38
					c-0.033-0.343,5.034-6.023,6.111-9.842c1.838-6.516,1.268-14.211,0.273-21.091c-3.531-24.416-8.74-48.776-8.31-73.443
					c4.575-2.193,8.148-6.354,4.43-10.911c-8.795,4.973-6.563,26.142-7.288,35.038C630.238,420.952,628.979,436.41,627.721,451.868z
					"/>
			</g>
		</g>
		<g>
			<g>
				<polygon style="fill:#1A3151;" points="630.078,737.792 612.529,745.6 612.529,750.48 632.342,751.944 650.456,749.504 
					649.89,737.792 				"/>
			</g>
		</g>
		<g>
			<g>
				<polygon style="fill:#1A3151;" points="670.677,737.792 661.167,748.253 654.985,753.959 660.691,759.665 676.858,756.337 
					690.648,744.449 688.27,737.792 				"/>
			</g>
		</g>
		<g>
			<g>
				<path style="fill:#D7E8F4;" d="M718.345,436.015c-25.536-56.204-40.849-75.231-40.849-75.231l-43.254,7.338l-0.034,0.222
					c1.275,2.261,2.588,4.503,3.781,6.81c4.713,9.106,8.623,18.623,11.634,28.439c5.291,17.253,8.343,35.357,10.516,53.252
					c2.085,17.171,2.963,34.493,2.549,51.778c-0.546,22.851-3.531,45.492-8.442,67.717c39.271,2.017,85.494,4.435,85.494,4.435
					S743.88,492.219,718.345,436.015z"/>
			</g>
		</g>
	</g>
	<g>
		<g>
			<g>
				<path style="fill:#1A3151;" d="M469.905,727.894l12.948,9.171l4.316,7.013c0,0-4.855,2.158-7.553,2.697
					c-2.698,0.539-23.737-2.697-23.737-2.697v-12.408L469.905,727.894z"/>
			</g>
		</g>
		<g>
			<g>
				<path style="fill:#1A3151;" d="M422.97,733.829l7.013,7.013c0,0,5.934,9.711,3.237,9.711c-2.697,0-17.263,1.618-18.342,0
					c-1.079-1.618-9.171-7.013-10.25-8.092c-1.079-1.079-0.58-10.539-0.58-10.539L422.97,733.829z"/>
			</g>
		</g>
		<g>
			<g>
				<path style="fill:#3B455A;" d="M447.786,544.472l-9.171,92.251l-15.645,97.106h-18.882l-2.158-101.422
					c0,0-18.882-92.251-20.5-119.764L447.786,544.472z"/>
			</g>
		</g>
		<g>
			<g>
				<polygon style="fill:#3B455A;" points="490.944,546.091 474.76,731.671 455.339,731.671 449.405,636.723 438.256,552.661 
					480.694,502.932 				"/>
			</g>
		</g>
		<g>
			<g>
				<path style="fill:#305399;" d="M482.985,364.558c0,0-23.694-17.855-49.156-5.187c-25.462,12.668-44.335,43.137-57.441,114.033
					c-13.106,70.896-19.328,79.166-8.897,81.812c10.431,2.645,38.398-6.534,47.535-4.502c9.137,2.032,70.066,16.899,88.913,1.346
					c18.847-15.553-13.532-47.885-15.642-98.376C486.185,403.194,502.757,381.705,482.985,364.558z"/>
			</g>
		</g>
		<g>
			<g>
				<polygon style="fill:#F7F7F7;" points="454.251,356.482 447.235,355.691 445.466,362.605 460.288,438.146 470.714,407.952 
					471.244,361.897 				"/>
			</g>
		</g>
		<g>
			<g>
				<g>
					<path style="fill:#7DB5DB;" d="M468.806,413.479c0.374-2.841,0.623-5.398,0.7-7.493c0.534-14.469-6.822-34.566-6.822-34.566
						s-0.066-4.16,0.312-7.716l-8.235-2.641l-0.787,8.895l3.069,4.358c0,0,3.746,35.2,1.866,48.807
						c-0.197,1.428-0.44,2.891-0.712,4.365l2.091,10.658L468.806,413.479z"/>
				</g>
			</g>
		</g>
		<g>
			<g>
				<polygon style="fill:#F7F7F7;" points="459.288,466.274 427.789,542.331 447.788,549.063 461.908,552.638 463.041,480.024 				
					"/>
			</g>
		</g>
		<g>
			<g>
				<g>
					<path style="fill:#EAC5B0;" d="M464.234,364.141c-4.635-1.39-9.271-2.78-13.906-4.171c0.692-3.797,1.689-7.538,2.977-11.176
						c-3.67-2.153-7.817-5.118-7.701-9.371c0.037-1.34,0.52-2.622,0.996-3.874c1.971-5.178,2.334-10.991,5.912-15.534
						c1.186-1.505,1.394-3.632,2.712-5.023c2.312-2.442,5.982-2.991,9.343-2.922c8.578,0.177,17.27,3.738,22.644,10.427
						c1.43,1.78,2.639,3.821,2.983,6.078c0.53,3.481-1.041,6.9-2.57,10.072c-1.412,2.927-2.823,5.855-4.235,8.782
						c-1.624,3.367-3.755,7.139-7.434,7.803c-1.953,0.353-4.056-0.272-5.904,0.453C466.793,356.962,466.344,361.348,464.234,364.141
						z"/>
				</g>
			</g>
			<g>
				<g>
					<path style="fill:#3B455A;" d="M507.367,302.916c-0.994-0.449-2-0.937-2.957-1.678c-3.021-2.337-4.65-5.904-7.904-8.203
						c-6.582-4.652-15.832-6.56-23.758-5.361c-7.586,1.148-17.223-0.112-24.339,2.209c-2.971,0.969-5.565,2.883-7.735,5.134
						c-7.516,7.796-9.947,20.092-5.962,30.161c0.894,2.259,2.075,4.395,3.349,6.463c2.638,4.281,5.767,9.543,10.108,11.785
						c0.912-4.096-0.307-17.811,3.513-20.569c5.066-3.657,12.671-1.606,18.013,0.292c6.365,2.261,12.262,1.527,18.682,3.498
						c3.27,1.004,6.846,2.618,9.925,1.129c3.56-1.722,11.748-7.981,14.09-11.044c2.051-2.682,2.129-6.605,0.493-9.559
						C511.474,304.624,509.447,303.856,507.367,302.916z"/>
				</g>
			</g>
		</g>
		<g>
			<g>
				<polygon style="fill:#305399;" points="445.537,355.691 422.328,359.654 398.553,398.147 463.085,475.133 530.448,493.813 
					537.807,476.265 476.105,441.168 438.178,372.107 				"/>
			</g>
		</g>
	</g>
	<g>
		<g>
			<polygon style="fill:#DAE5EA;" points="537.291,477.497 541.204,479.661 534.977,493.813 531.082,492.302 			"/>
		</g>
	</g>
	<g>
		<g>
			<polygon style="fill:#EDEEEF;" points="554.951,474.859 550.261,476.265 553.657,492.115 557.913,490.658 			"/>
		</g>
	</g>
	<g>
		<g>
			<polygon style="fill:#EAC5B0;" points="541.204,479.661 546.865,475.699 554.79,479.661 558.186,481.926 558.186,490.417 
				550.261,493.247 536.143,491.163 			"/>
		</g>
	</g>
	<g>
		<g>
			<polygon style="fill:#E2AC91;" points="550.261,476.265 545.166,475.133 541.204,475.699 542.336,483.624 545.732,483.058 
				545.732,476.491 546.865,475.699 550.525,477.497 			"/>
		</g>
	</g>
	<g>
		<g>
			<g>
				<g>
					<path style="fill:#3B455A;" d="M852.629,742.313c-0.012-7.61-5.3-13.964-12.393-15.649c0.33-1.399,0.462-2.881,0.361-4.452
						c-0.161-2.501-1.06-4.939-2.234-7.131c-3.047-5.693-8.85-9.262-14.295-12.733c-5.819-3.71-11.643-7.725-15.677-13.324
						c-7.68-10.66-1.343-22.575-5.726-33.953c-3.135-8.136-8.104-10.36-14.536-11.262l-0.711-6.41
						c18.238,0.433,31.979,0.312,33.344-0.96c1.183-1.102,2.32-9.497,2.676-22.533c0,0,23.395-5.348,23.412-5.352
						c7.446-1.785-4.648-83.676-6.307-91.114c-8.205-36.802-28.992-68.498-57.794-90.801c-13.304-10.301-28.317-18.599-44.59-24.469
						c-2.168-0.782-16.057-1.935-16.667-2.756l-23.84-31.995c-1.25-1.678-4.104-1.178-4.165,0.73l-1.151,36.359
						c-30.492,8.04-51.313,21.858-51.313,21.858s2.349,5.144,7.829,17.148c5.48,12.004-27.584,66.669-27.584,66.669l23.491,33.297
						c0,0,20.797,0.164,22.292-10.178c1.495-10.342,7.973-18.847,7.973-18.847l58.904-11.686l-1.712,9.866L673.196,599.3
						c-0.855,1.256-1.004,2.863-0.394,4.254l11.746,26.791c0.667,1.52,2.127,2.537,3.784,2.632
						c4.975,0.285,16.388,0.926,30.539,1.643l-0.741,7.932c-6.266,1.126-11.523,4.099-14.274,11.301
						c-4.347,11.392,2.029,23.287-5.617,33.971c-4.016,5.612-9.827,9.646-15.634,13.374c-5.434,3.489-11.225,7.076-14.254,12.779
						c-2.567,4.834-3.03,9.122-1.924,12.924c-7.171,1.648-12.519,8.062-12.506,15.732l0.001,0.326
						c0.014,8.907,7.247,16.116,16.154,16.102l166.45-0.268c8.908-0.014,16.117-7.247,16.102-16.154L852.629,742.313z"/>
				</g>
				<g style="opacity:0.16;">
					<polygon points="718.872,634.62 787.417,637.398 788.128,643.808 718.872,636.92 					"/>
				</g>
				<g style="opacity:0.16;">
					<path d="M823.436,613.906c1.56-0.356-3.65-40.056-4.206-44.066c-2.084-15.03-5.013-29.972-9.413-44.506
						c-8.995-29.717-24.088-58.421-48.829-77.854c-17.153-13.473-38.79-25.35-61.343-25.112c16.933-0.179,34.716,1.962,50.824,7.201
						c28.734,9.344,48.01,36.742,61.489,62.309c12.577,23.854,20.636,50.085,23.602,76.889c0.336,3.038,5.161,40.904,3.181,41.64
						L823.436,613.906z"/>
				</g>
			</g>
			<g>
				<g>
					<path style="fill:#6D6E71;" d="M670.077,759.178c-8.97,0-16.258-7.276-16.272-16.219l-0.001-0.326
						c-0.012-7.582,5.112-14.068,12.477-15.818c-1.122-3.985-0.461-8.321,1.967-12.893c2.945-5.544,8.445-9.071,13.763-12.482
						l0.531-0.341c5.665-3.638,11.537-7.664,15.602-13.344c4.308-6.02,4.144-12.294,3.971-18.938
						c-0.129-4.939-0.262-10.046,1.631-15.007c2.451-6.416,6.988-10.027,14.275-11.359l0.722-7.722
						c-13.729-0.697-24.945-1.324-30.418-1.637c-1.708-0.098-3.197-1.134-3.885-2.703l-11.747-26.791
						c-0.63-1.437-0.479-3.069,0.404-4.366l59.004-86.647l1.679-9.673l-58.693,11.644c-0.453,0.608-6.499,8.899-7.924,18.757
						c-1.469,10.162-21.498,10.279-22.35,10.279l-0.12-0.002l-0.034-0.048l-23.535-33.359l0.04-0.065
						c0.33-0.546,32.97-54.749,27.578-66.559l-7.87-17.239l0.083-0.055c0.208-0.138,21.146-13.896,51.264-21.851l1.148-36.271
						c0.039-1.223,1.139-1.862,2.206-1.862l0,0c0.874,0,1.665,0.389,2.169,1.066l23.84,31.995c0.304,0.41,4.998,1.007,8.77,1.486
						c3.523,0.448,6.851,0.871,7.844,1.229c16.149,5.826,31.163,14.065,44.623,24.487c14.494,11.223,26.824,24.679,36.648,39.993
						c10.014,15.61,17.143,32.727,21.188,50.876c1.542,6.915,13.914,89.409,6.22,91.253c-0.031,0.007-3.692,0.844-8.109,1.854
						l-2.792,0.638L823.551,614c-0.339,12.283-1.428,21.33-2.711,22.525c-0.879,0.819-6.457,1.217-17.053,1.217
						c-4.513,0-9.976-0.075-16.239-0.223l0.686,6.186c6.467,0.921,11.415,3.214,14.539,11.323c1.909,4.955,1.793,10.063,1.68,15.002
						c-0.152,6.644-0.295,12.919,4.032,18.925c4.082,5.665,9.967,9.673,15.645,13.293l0.535,0.341
						c5.328,3.393,10.838,6.901,13.8,12.435c1.346,2.515,2.103,4.93,2.247,7.179c0.097,1.494-0.016,2.965-0.337,4.373
						c7.278,1.782,12.358,8.236,12.369,15.735l0.001,0.326c0.014,8.958-7.262,16.257-16.219,16.272L670.077,759.178z
						 M734.071,502.619l-1.76,10.079l-59.018,86.668c-0.838,1.23-0.981,2.777-0.383,4.141l11.746,26.791
						c0.652,1.487,2.064,2.469,3.683,2.562c5.489,0.314,16.755,0.944,30.538,1.643l0.122,0.006l-0.761,8.143l-0.088,0.016
						c-7.249,1.303-11.756,4.87-14.185,11.228c-1.876,4.917-1.744,10.001-1.616,14.917c0.166,6.39,0.338,12.997-4.015,19.081
						c-4.089,5.713-9.981,9.754-15.666,13.404l-0.531,0.341c-5.293,3.395-10.767,6.904-13.683,12.395
						c-2.422,4.561-3.066,8.879-1.915,12.836l0.035,0.119l-0.121,0.028c-7.322,1.682-12.427,8.104-12.415,15.617l0.001,0.326
						c0.014,8.814,7.196,15.985,16.01,15.985l166.476-0.268c8.829-0.015,16-7.208,15.986-16.037l-0.001-0.326
						c-0.012-7.429-5.071-13.817-12.303-15.536l-0.114-0.027l0.027-0.114c0.335-1.42,0.456-2.907,0.357-4.418
						c-0.143-2.215-0.89-4.599-2.22-7.084c-2.933-5.48-8.416-8.971-13.719-12.348l-0.535-0.341
						c-5.697-3.632-11.603-7.655-15.709-13.354c-4.373-6.069-4.222-12.677-4.077-19.067c0.112-4.917,0.229-10-1.664-14.913
						c-3.097-8.039-8.014-10.287-14.443-11.188l-0.09-0.013l-0.736-6.634l0.134,0.003c6.318,0.15,11.824,0.226,16.368,0.226
						c10.387,0,16.071-0.389,16.893-1.155c1.001-0.932,2.254-8.355,2.639-22.45l0.002-0.09l15.391-3.518
						c4.261-0.974,8.103-1.853,8.111-1.854c3.002-0.72,3.063-16.101,0.169-43.31c-2.267-21.315-5.717-43.856-6.566-47.664
						c-4.04-18.121-11.158-35.213-21.157-50.8c-9.809-15.292-22.122-28.727-36.594-39.934
						c-13.44-10.408-28.432-18.635-44.559-24.452c-0.968-0.35-4.438-0.79-7.793-1.217c-5.329-0.678-8.589-1.122-8.928-1.579
						l-23.84-31.995c-0.46-0.617-1.182-0.971-1.981-0.972c-0.954,0-1.938,0.561-1.972,1.636l-1.154,36.445l-0.084,0.022
						c-29.157,7.688-49.718,20.828-51.194,21.788l7.787,17.056c2.288,5.012-1.661,17.776-11.739,37.936
						c-7.229,14.463-15.18,27.726-15.812,28.776l23.412,33.185c0.889,0,20.677-0.127,22.115-10.078
						c1.482-10.253,7.931-18.816,7.995-18.901l0.027-0.036l0.044-0.008L734.071,502.619z"/>
				</g>
			</g>
		</g>
	</g>
	<g>
		<g id="XMLID_142_">
			<path style="fill:#73726F;" d="M194.673,614.786l-5.368,11.617c-1.744,3.773-6.141,5.453-9.821,3.753L149.717,616.4
				c-3.68-1.701-5.251-6.138-3.507-9.912l5.368-11.617L194.673,614.786z"/>
		</g>
		<g>
			<path style="fill:#D7E8F4;" d="M173.025,415.495c18.886-40.869,66.511-59.066,106.374-40.645
				c39.863,18.421,56.869,66.485,37.984,107.353c-6.711,14.523-17.054,26.18-29.386,34.351l0.003,0.001
				c-36.029,25.222-54.025,51.976-54.025,51.976l-36.321-16.784l-36.321-16.784c0,0,8.713-31.044,4.572-74.828l0.003,0.001
				C164.14,445.449,166.314,430.018,173.025,415.495z"/>
		</g>
		<g>
			<path style="fill:#AFADAC;" d="M234.812,568.918l-22.804,49.349c-0.953,2.062-3.316,2.998-5.28,2.09l-67.205-31.056
				c-1.963-0.907-2.783-3.314-1.83-5.376l22.804-49.348L234.812,568.918z"/>
		</g>
		<g>
			<path style="fill:#F7F7F7;" d="M180.71,402.233c1.352,45.219,10.725,118.439,53.392,166.114c-0.075,0.11-0.126,0.184-0.126,0.184
				l-36.321-16.784l-36.321-16.784c0,0,8.713-31.044,4.572-74.828l0.003,0.001c-1.769-14.687,0.405-30.118,7.117-44.642
				C175.215,410.757,177.805,406.339,180.71,402.233z"/>
		</g>
		<g>
			<g>
				<path style="fill:#F7F7F7;" d="M302.776,482.839c16.488-35.68,1.641-77.641-33.161-93.723
					c-20.342-9.4-42.997-7.874-61.606,2.139c19.831-14.338,46.25-17.952,69.616-7.155c34.802,16.082,49.648,58.043,33.161,93.723
					c-6.85,14.824-18.034,26.228-31.262,33.345C289.229,504.151,297.357,494.564,302.776,482.839z"/>
			</g>
		</g>
		<g>
			<g>
				<polygon style="fill:#F4F5F5;" points="211.69,558.233 264.206,467.551 247.222,472.308 244.57,450.13 226.072,461.866 
					218.68,446.405 183.619,545.261 179.891,543.539 218.149,435.672 227.812,455.884 247.881,443.152 250.736,467.017 
					272.825,460.83 215.418,559.956 				"/>
			</g>
		</g>
		<g>
			<g>
				<path style="fill:#EBEAEB;" d="M220.655,550.913l-5.237,9.043l-3.728-1.723l6.469-11.171
					C218.975,548.356,219.805,549.641,220.655,550.913z"/>
			</g>
			<g>
				<path style="fill:#EBEAEB;" d="M198.055,504.558l-14.436,40.703l-3.728-1.723l16.063-45.288
					C196.626,500.358,197.326,502.461,198.055,504.558z"/>
			</g>
		</g>
		<g>
			<g>
				
					<rect x="184.867" y="527.624" transform="matrix(0.4195 -0.9078 0.9078 0.4195 -405.8828 502.4297)" style="fill:#868381;" width="10.039" height="81.866"/>
			</g>
			<g>
				
					<rect x="175.874" y="547.086" transform="matrix(0.4195 -0.9078 0.9078 0.4195 -428.7706 505.5641)" style="fill:#868381;" width="10.039" height="81.866"/>
			</g>
		</g>
		<g>
			<g>
				<path style="fill:#94908B;" d="M179.414,581.806l-33.572-15.514l4.782-10.349l20.71,9.57
					C173.851,571.445,176.574,576.861,179.414,581.806z"/>
			</g>
			<g>
				<path style="fill:#94908B;" d="M154.835,546.83l5.662-12.253l1.169,0.54c1.357,6.031,2.928,11.701,4.671,17.028L154.835,546.83z
					"/>
			</g>
			<g>
				<path style="fill:#94908B;" d="M206.728,620.357l-67.205-31.056c-1.963-0.907-2.783-3.314-1.83-5.376l3.937-8.52l48.524,22.423
					c7.497,9.614,15.053,16.527,21.297,21.312C210.313,620.565,208.383,621.122,206.728,620.357z"/>
			</g>
			<g>
				<path style="fill:#73726F;" d="M171.333,565.513l-20.71-9.57l4.211-9.113l11.503,5.315
					C167.881,556.863,169.554,561.32,171.333,565.513z"/>
			</g>
			<g>
				<path style="fill:#73726F;" d="M190.155,597.828l-48.524-22.423l4.211-9.113l33.572,15.514
					C182.873,587.83,186.506,593.149,190.155,597.828z"/>
			</g>
		</g>
		<g>
			<path style="fill:#5D5A59;" d="M148.317,601.927c4.558,12.147,19.457,22.069,24.478,25.137L149.717,616.4
				c-3.681-1.701-5.251-6.138-3.507-9.912L148.317,601.927z"/>
		</g>
	</g>
	<g>
		<g>
			<polygon style="fill:#E2AC91;" points="725.366,411.226 730.503,425.781 740.738,424.405 738.68,414.351 741.216,406.483 
				730.078,403.352 			"/>
		</g>
		<g>
			<polygon style="fill:#D7E8F4;" points="727.532,390.821 722.856,404.49 743.727,409.143 743.727,401.115 			"/>
		</g>
	</g>
	<g>
		<polygon style="fill:#BCBEC0;" points="942,368 942,433 964.347,368.137 957.465,374.263 		"/>
	</g>
	<g>
		<g>
			<polygon style="fill:#EAC5B0;" points="228.995,450.994 237.087,450.791 236.902,455.626 245.408,461.9 237.014,467.364 
				226.256,461.796 			"/>
		</g>
	</g>
	<g>
		<path style="fill:#305399;" d="M168.148,424.245c0,0-4.353-1.245-18.768,1.339l2.929,20.282l74.71,16.325l7.089-11.011
			L168.148,424.245z"/>
	</g>
	<g id="XMLID_141_">
		<g>
			<path style="fill:#EAC5B0;" d="M940.07,455.742l-1.619-6.85l5.133-5.2l6.992-0.927l3.599,3.873l0.361,6.524l1.483-1.654
				l1.382,1.143l-0.416,9.747c-2.95,0.896-7.733,6.538-9.313,7.018l-1.859-7.605L940.07,455.742z"/>
		</g>
	</g>
	<g>
		<polygon style="fill:#587BC9;" points="964.347,533.297 941.951,463.711 957,460.089 986,522.132 		"/>
	</g>
</g>
</svg>
