<svg width="45" height="46" viewBox="0 0 45 46" fill="none" xmlns="http://www.w3.org/2000/svg">
  <rect x="0.65" y="1.15" width="43.7" height="43.7" rx="21.85" stroke="#1476F2" stroke-width="1.3"/>
  <path fill-rule="evenodd" clip-rule="evenodd" d="M18.608 26.2813C18.481 26.2813 18.3596 26.3329 18.271 26.4243L15 29.8087V26.7501C15 26.4913 14.79 26.2813 14.5313 26.2813H13.5938C12.818 26.2813 12.1875 25.6504 12.1875 24.8751V14.0938C12.1875 13.3184 12.818 12.6875 13.5938 12.6875H27.1876C27.9629 12.6875 28.5939 13.3184 28.5939 14.0938V24.8751C28.5939 25.6504 27.9629 26.2813 27.1876 26.2813H18.608ZM29.5314 24.8751V14.0938C29.5314 12.8014 28.48 11.75 27.1876 11.75H13.5938C12.3014 11.75 11.25 12.8014 11.25 14.0938V24.8751C11.25 26.1674 12.3014 27.2188 13.5938 27.2188H14.0625V29.8092C14.0625 30.3267 14.4844 30.7476 15.0038 30.7476C15.2574 30.7476 15.495 30.6459 15.6736 30.4607L18.8068 27.2188H27.1876C28.48 27.2188 29.5314 26.1674 29.5314 24.8751Z" fill="#1476F2" stroke="#1476F2" stroke-width="0.3"/>
  <path fill-rule="evenodd" clip-rule="evenodd" d="M31.4061 18.3125H29.9998V19.25H31.4061C32.1814 19.25 32.8123 19.8809 32.8123 20.6563V27.6876C32.8123 28.4629 32.1814 29.0938 31.4061 29.0938H30.4686C30.2094 29.0938 29.9998 29.3038 29.9998 29.5626V32.181L27.05 29.2312C26.9623 29.143 26.8432 29.0938 26.7185 29.0938H22.4998C21.7245 29.0938 21.0935 28.4629 21.0935 27.6876H20.156C20.156 28.9799 21.2074 30.0313 22.4998 30.0313H26.5245L29.337 32.8438C29.517 33.0238 29.7556 33.119 29.9989 33.119C30.1198 33.119 30.2422 33.0956 30.3589 33.0473C30.7104 32.9015 30.9373 32.5612 30.9373 32.181V30.0313H31.4061C32.6984 30.0313 33.7498 28.9799 33.7498 27.6876V20.6563C33.7498 19.3639 32.6984 18.3125 31.4061 18.3125Z" fill="#1476F2" stroke="#1476F2" stroke-width="0.3"/>
  <path fill-rule="evenodd" clip-rule="evenodd" d="M25.3123 20.1308C25.3114 20.1454 25.302 20.1697 25.2903 20.1875H24.6683C24.2604 20.1875 23.9328 20.4088 23.8123 20.7655C23.795 20.8171 23.7781 20.8466 23.7434 20.9052L23.6843 21.0111C23.4997 21.3618 23.5657 21.7865 23.8498 22.0672L24.3008 22.5126L23.4443 23.3699L22.9868 22.9072C22.7215 22.6424 22.3132 22.574 21.9645 22.7376L21.9021 22.7676C21.8215 22.806 21.7479 22.8416 21.6589 22.8735C21.3101 22.9977 21.0935 23.324 21.0935 23.7248V24.3843C21.0753 24.3955 21.0514 24.4054 21.0368 24.4063H19.744C19.7295 24.4058 19.7056 24.3955 19.6873 24.3843V23.7248C19.6873 23.3235 19.4698 22.9972 19.1206 22.8735C19.0596 22.8519 19.0151 22.8276 18.9668 22.8022C18.927 22.7821 18.8862 22.761 18.8388 22.7385C18.4938 22.5758 18.0696 22.6452 17.8048 22.9096L17.3398 23.376L16.482 22.521L16.9334 22.078C17.2137 21.8001 17.2788 21.381 17.096 21.0346L17.0716 20.9886C17.0337 20.9183 16.9985 20.8546 16.9676 20.7646C16.8476 20.4088 16.5199 20.1875 16.1121 20.1875H15.4905C15.4788 20.1697 15.4694 20.1454 15.4685 20.1313V18.8385C15.4694 18.8239 15.4788 18.7996 15.4905 18.7813H16.1116C16.5232 18.7813 16.8509 18.5591 16.9676 18.201C16.9906 18.1302 17.0177 18.0847 17.0454 18.0341L17.1002 17.9319C17.2784 17.5813 17.2151 17.1603 16.9418 16.8838L16.4759 16.4127L17.3365 15.5511L17.794 16.0138C18.0593 16.2795 18.469 16.3489 18.8168 16.1835L18.8773 16.1549C18.9584 16.116 19.0324 16.0794 19.121 16.048C19.4703 15.9238 19.6873 15.5975 19.6873 15.1967V14.5845C19.7056 14.5733 19.7295 14.5634 19.7435 14.5625H21.0364C21.0509 14.5634 21.0753 14.5733 21.0935 14.585V15.1967C21.0935 15.6031 21.3045 15.9214 21.6579 16.048C21.7179 16.0691 21.7625 16.0939 21.8103 16.1188C21.8506 16.1399 21.8928 16.1619 21.9401 16.1839C22.2842 16.348 22.7089 16.2805 22.9756 16.0152L23.4397 15.5511L24.3012 16.4131L23.84 16.8711C23.5639 17.15 23.5011 17.5574 23.6998 17.9464C23.7411 18.0275 23.7795 18.0997 23.8128 18.2019C23.9295 18.5591 24.2572 18.7813 24.6687 18.7813H25.2898C25.3015 18.7996 25.3114 18.8239 25.3123 18.838V20.1308ZM25.3494 17.8438L24.68 17.8414C24.6364 17.721 24.5876 17.6235 24.5286 17.5086L24.9936 17.0464C25.3414 16.6972 25.3414 16.1286 24.9922 15.7789L24.0758 14.862C23.7364 14.5222 23.1443 14.5217 22.8026 14.862L22.3418 15.3369L22.2443 15.2877C22.1754 15.2516 22.1103 15.2188 22.0311 15.1869V14.5255C22.0311 13.9948 21.5075 13.625 21.0373 13.625H19.7435C19.2734 13.625 18.7498 13.9948 18.7498 14.5255L18.7474 15.1869C18.6509 15.2244 18.5646 15.2647 18.4727 15.3088L18.4334 15.3275L17.9717 14.8602C17.6318 14.5198 17.0416 14.5198 16.7013 14.8602L15.7868 15.7761C15.438 16.1249 15.4362 16.6939 15.7835 17.0455L16.2649 17.5053L16.2241 17.5822C16.1843 17.6539 16.1412 17.7336 16.0999 17.8438H15.431C14.9004 17.8438 14.531 18.3678 14.531 18.838V20.1313C14.531 20.6014 14.9004 21.125 15.431 21.125L16.1023 21.1274C16.1487 21.2511 16.1998 21.3458 16.2448 21.4307L16.248 21.4372L15.7924 21.8844C15.6218 22.0541 15.5276 22.2801 15.5271 22.5201C15.5271 22.7601 15.6209 22.986 15.7915 23.1571L16.7046 24.0665C17.0449 24.4058 17.637 24.4054 17.9777 24.0646L18.4395 23.5869L18.536 23.6352C18.6049 23.6708 18.6706 23.7041 18.7498 23.7355V24.4438C18.7498 24.9744 19.2734 25.3438 19.7431 25.3438H21.0373C21.5075 25.3438 22.0311 24.9744 22.0311 24.4438L22.0334 23.7341C22.129 23.6971 22.2143 23.6573 22.3053 23.6137L22.3475 23.594L22.8092 24.0613C23.149 24.4012 23.7397 24.4012 24.079 24.0608L24.9908 23.1482C25.1614 22.9776 25.2547 22.7502 25.2537 22.5093C25.2528 22.2679 25.1576 22.041 24.9861 21.8718L24.5295 21.4208L24.5548 21.3758C24.5919 21.3116 24.6373 21.2338 24.6786 21.125H25.3494C25.88 21.125 26.2498 20.6014 26.2498 20.1313V18.838C26.2498 18.3678 25.88 17.8438 25.3494 17.8438Z" fill="#1476F2" stroke="#1476F2" stroke-width="0.3"/>
  <path fill-rule="evenodd" clip-rule="evenodd" d="M20.3906 20.6563C19.7442 20.6563 19.2188 20.1303 19.2188 19.4844C19.2188 18.8384 19.7442 18.3125 20.3906 18.3125C21.037 18.3125 21.5625 18.8384 21.5625 19.4844C21.5625 20.1303 21.037 20.6563 20.3906 20.6563ZM20.3906 17.375C19.2277 17.375 18.2812 18.3214 18.2812 19.4844C18.2812 20.6474 19.2277 21.5938 20.3906 21.5938C21.5536 21.5938 22.5 20.6474 22.5 19.4844C22.5 18.3214 21.5536 17.375 20.3906 17.375Z" fill="#1476F2" stroke="#1476F2" stroke-width="0.3"/>
</svg>
